<svg width="640" height="565" viewBox="0 0 640 565" fill="none" xmlns="http://www.w3.org/2000/svg">
<g clip-path="url(#clip0_434_137)">
<path d="M162.659 559.706L240.503 481.863H399.498L477.341 559.706H162.659Z" fill="black" stroke="black" stroke-width="10"/>
<mask id="path-2-inside-1_434_137" fill="white">
<rect width="640" height="464.314" rx="40"/>
</mask>
<rect width="640" height="464.314" rx="40" stroke="black" stroke-width="100" mask="url(#path-2-inside-1_434_137)"/>
<line x1="105" y1="270" x2="105" y2="360" stroke="black" stroke-width="30"/>
<line x1="165" y1="360" x2="165" y2="160" stroke="black" stroke-width="30"/>
<line x1="225" y1="360" x2="225" y2="190" stroke="black" stroke-width="30"/>
<line x1="285" y1="360" x2="285" y2="130" stroke="black" stroke-width="30"/>
<mask id="path-7-inside-2_434_137" fill="white">
<path d="M526.391 165.467C542.629 184.69 551.024 209.328 549.9 234.466C548.776 259.604 538.217 283.395 520.328 301.091C502.439 318.788 478.536 329.09 453.387 329.943C428.238 330.795 403.692 322.135 384.646 305.69C365.6 289.244 353.454 266.223 350.631 241.219C347.808 216.214 354.516 191.065 369.416 170.787C384.316 150.509 406.313 136.594 431.018 131.818C455.724 127.042 481.323 131.755 502.707 145.018L469.464 198.617C461.567 193.719 452.114 191.978 442.99 193.742C433.867 195.506 425.743 200.645 420.241 208.133C414.738 215.622 412.261 224.909 413.304 234.143C414.346 243.377 418.832 251.879 425.865 257.952C432.899 264.025 441.964 267.223 451.251 266.908C460.538 266.593 469.365 262.789 475.972 256.254C482.578 249.718 486.477 240.933 486.892 231.649C487.307 222.366 484.207 213.267 478.211 206.169L526.391 165.467Z"/>
</mask>
<path d="M526.391 165.467C542.629 184.69 551.024 209.328 549.9 234.466C548.776 259.604 538.217 283.395 520.328 301.091C502.439 318.788 478.536 329.09 453.387 329.943C428.238 330.795 403.692 322.135 384.646 305.69C365.6 289.244 353.454 266.223 350.631 241.219C347.808 216.214 354.516 191.065 369.416 170.787C384.316 150.509 406.313 136.594 431.018 131.818C455.724 127.042 481.323 131.755 502.707 145.018L469.464 198.617C461.567 193.719 452.114 191.978 442.99 193.742C433.867 195.506 425.743 200.645 420.241 208.133C414.738 215.622 412.261 224.909 413.304 234.143C414.346 243.377 418.832 251.879 425.865 257.952C432.899 264.025 441.964 267.223 451.251 266.908C460.538 266.593 469.365 262.789 475.972 256.254C482.578 249.718 486.477 240.933 486.892 231.649C487.307 222.366 484.207 213.267 478.211 206.169L526.391 165.467Z" fill="black" stroke="black" stroke-width="20" mask="url(#path-7-inside-2_434_137)"/>
</g>
<defs>
<clipPath id="clip0_434_137">
<rect width="640" height="565" fill="white"/>
</clipPath>
</defs>
</svg>
