<svg width="300" height="58" viewBox="0 0 300 58" fill="none" xmlns="http://www.w3.org/2000/svg">
<g clip-path="url(#clip0_587_157)">
<path d="M29 56.0717C14.0487 56.0717 1.92827 43.9513 1.92827 29C1.92827 14.0487 14.0487 1.92827 29 1.92827C43.9513 1.92827 56.0717 14.0487 56.0717 29C56.0717 43.9513 43.9513 56.0717 29 56.0717Z" fill="#045C99" stroke="#045C99" stroke-width="3.85653"/>
<path d="M29 37.9476L38.6413 18" stroke="white" stroke-width="3.85653" stroke-linecap="round"/>
<path d="M29 38L23 30" stroke="white" stroke-width="3.85653" stroke-linecap="round"/>
<path d="M121 29C121 12.9837 133.984 0 150 0V0C166.016 0 179 12.9837 179 29V29C179 45.0163 166.016 58 150 58V58C133.984 58 121 45.0163 121 29V29Z" fill="#045C99"/>
<path d="M148 38.9476L157.641 19" stroke="white" stroke-width="3.85653" stroke-linecap="round"/>
<path d="M148 39L142 31" stroke="white" stroke-width="3.85653" stroke-linecap="round"/>
<path d="M271 56.0717C256.049 56.0717 243.928 43.9513 243.928 29C243.928 14.0487 256.049 1.92827 271 1.92827C285.951 1.92827 298.072 14.0487 298.072 29C298.072 43.9513 285.951 56.0717 271 56.0717Z" stroke="#045C99" stroke-width="3.85653"/>
<path d="M268.794 27.3909H270.963C271.807 27.3909 272.505 27.2453 273.057 26.9541C273.62 26.6628 274.037 26.2611 274.308 25.7489C274.579 25.2367 274.715 24.6492 274.715 23.9864C274.715 23.2934 274.589 22.7008 274.338 22.2087C274.097 21.7066 273.725 21.3199 273.223 21.0488C272.731 20.7776 272.103 20.642 271.34 20.642C270.697 20.642 270.115 20.7726 269.593 21.0337C269.08 21.2848 268.674 21.6463 268.372 22.1183C268.071 22.5803 267.92 23.1327 267.92 23.7754H264.275C264.275 22.6105 264.581 21.576 265.194 20.6721C265.806 19.7683 266.64 19.0602 267.694 18.548C268.759 18.0258 269.954 17.7647 271.28 17.7647C272.696 17.7647 273.931 18.0007 274.986 18.4727C276.05 18.9347 276.879 19.6277 277.471 20.5516C278.064 21.4756 278.36 22.6205 278.36 23.9864C278.36 24.609 278.215 25.2417 277.923 25.8845C277.632 26.5272 277.2 27.1148 276.628 27.647C276.055 28.1693 275.342 28.5961 274.489 28.9275C273.635 29.2489 272.646 29.4096 271.521 29.4096H268.794V27.3909ZM268.794 30.2231V28.2346H271.521C272.806 28.2346 273.901 28.3852 274.805 28.6865C275.719 28.9878 276.462 29.4046 277.034 29.9369C277.607 30.4591 278.024 31.0567 278.285 31.7295C278.556 32.4024 278.692 33.1155 278.692 33.8687C278.692 34.8931 278.506 35.807 278.134 36.6105C277.773 37.4039 277.255 38.0768 276.583 38.6291C275.91 39.1815 275.121 39.5983 274.217 39.8795C273.324 40.1607 272.349 40.3013 271.295 40.3013C270.351 40.3013 269.447 40.1707 268.583 39.9096C267.72 39.6485 266.946 39.2618 266.263 38.7496C265.58 38.2274 265.038 37.5796 264.636 36.8063C264.245 36.023 264.049 35.1191 264.049 34.0947H267.679C267.679 34.7475 267.83 35.325 268.131 35.8271C268.443 36.3192 268.874 36.7059 269.427 36.9871C269.989 37.2683 270.632 37.4089 271.355 37.4089C272.118 37.4089 272.776 37.2733 273.329 37.0021C273.881 36.731 274.303 36.3293 274.594 35.797C274.895 35.2647 275.046 34.6219 275.046 33.8687C275.046 33.0151 274.88 32.3221 274.549 31.7898C274.217 31.2575 273.745 30.8658 273.133 30.6148C272.52 30.3536 271.797 30.2231 270.963 30.2231H268.794Z" fill="#045C99"/>
<path d="M58 29L124 29" stroke="#045C99" stroke-width="3.86"/>
<path d="M177 29L243 29" stroke="#045C99" stroke-width="3.86"/>
</g>
<defs>
<clipPath id="clip0_587_157">
<rect width="300" height="58" fill="white"/>
</clipPath>
</defs>
</svg>
