<svg width="384" height="443" viewBox="0 0 384 443" fill="none" xmlns="http://www.w3.org/2000/svg">
<g clip-path="url(#clip0_588_135)">
<path d="M103.823 233.411L169.404 278.402L285.209 130.86M189.705 22.7858L27.4726 84.108C25.8468 84.7137 24.4574 85.7459 23.4824 87.0723C22.5075 88.3988 21.9913 89.959 22.0001 91.5531V222.283C22.0061 254.043 31.1132 285.256 48.4283 312.862C65.7435 340.467 90.6721 363.517 120.77 379.751L192.971 418.658L264.113 379.831C293.968 363.559 318.673 340.557 335.826 313.062C352.979 285.567 361.996 254.515 362 222.923V84.0279C362.006 82.3922 361.459 80.7941 360.433 79.4487C359.408 78.1034 357.952 77.0752 356.263 76.5027L196.237 22.7058C194.128 21.9739 191.791 22.0025 189.705 22.7858Z" stroke="black" stroke-width="42.5"/>
</g>
<defs>
<clipPath id="clip0_588_135">
<rect width="384" height="443" fill="white"/>
</clipPath>
</defs>
</svg>
